<svg xmlns="http://www.w3.org/2000/svg" shape-rendering="geometricPrecision" text-rendering="geometricPrecision" image-rendering="optimizeQuality" fill-rule="evenodd" clip-rule="evenodd" viewBox="0 0 800 800">
  <ellipse style="fill: #fff" cx="400" cy="399.999" rx="400" ry="399.999"></ellipse>
  <path fill="#B22234" d="M 400 0 C 472.976 0 541.387 19.555 600.315 53.676 L 199.686 53.676 C 258.614 19.555 327.024 0 400 0 Z M 688.06 122.508 C 704.991 140.03 720.259 159.142 733.753 179.529 L 66.229 179.529 C 79.704 159.031 95.046 139.864 111.922 122.508 L 688.06 122.508 Z M 770.148 248.14 C 777.727 266.567 783.938 285.624 788.707 305.29 L 11.294 305.29 C 16.118 285.661 22.44 266.66 29.852 248.14 L 770.148 248.14 L 770.148 248.14 Z M 799.132 373.975 C 799.686 382.625 800 391.293 800 399.981 C 800 410.461 799.594 420.867 798.799 431.125 L 1.201 431.125 C 0.425 420.793 0 410.313 0 399.981 C 0 391.238 0.314 382.569 0.869 373.975 L 799.132 373.975 L 799.132 373.975 Z M 787.45 499.773 C 782.442 519.305 775.941 538.424 768.004 556.96 L 31.996 556.96 C 24.14 538.44 17.523 519.273 12.551 499.773 L 787.45 499.773 Z M 730.333 625.571 C 716.23 646.161 700.296 665.421 682.681 682.998 L 117.32 682.998 C 99.76 665.421 83.771 646.161 69.667 625.571 L 730.333 625.571 Z M 591.202 751.406 C 534.159 782.402 468.91 799.998 400 799.998 C 330.74 799.998 265.582 782.384 208.799 751.406 L 591.202 751.406 Z" fill-rule="nonzero"></path>
  <path fill="#3C3B6E" d="M 422.477 0.647 L 422.477 433.916 L 1.46 433.916 C 0.481 422.697 0 411.44 0 399.981 C 0 179.086 179.076 0 400 0 C 407.542 0 415.046 0.24 422.477 0.647 L 422.477 0.647 Z" fill-rule="nonzero"></path>
  <path fill="#fff" d="M 20.721 272.575 L 22.532 278.231 L 19.575 276.049 L 20.721 272.575 L 20.721 272.575 Z M 370.61 364.825 L 385.416 410.405 L 346.673 382.218 L 394.529 382.218 L 355.767 410.405 L 370.61 364.825 L 370.61 364.825 Z M 370.61 276.733 L 385.416 322.239 L 346.673 294.108 L 394.529 294.108 L 355.767 322.239 L 370.61 276.733 L 370.61 276.733 Z M 370.61 188.586 L 385.416 234.148 L 346.673 205.942 L 394.529 205.942 L 355.767 234.148 L 370.61 188.586 L 370.61 188.586 Z M 370.61 100.494 L 385.416 146 L 346.673 117.85 L 394.529 117.85 L 355.767 146 L 370.61 100.494 L 370.61 100.494 Z M 370.61 12.384 L 385.416 57.908 L 346.673 29.74 L 394.529 29.74 L 355.767 57.908 L 370.61 12.384 L 370.61 12.384 Z M 318.706 320.779 L 333.549 366.322 L 294.769 338.135 L 342.625 338.135 L 304.067 366.322 L 318.706 320.779 L 318.706 320.779 Z M 318.706 232.669 L 333.549 278.231 L 294.769 250.025 L 342.625 250.025 L 304.067 278.231 L 318.706 232.669 L 318.706 232.669 Z M 318.706 144.577 L 333.549 190.083 L 294.769 161.933 L 342.625 161.933 L 304.067 190.083 L 318.706 144.577 L 318.706 144.577 Z M 318.706 56.411 L 333.549 101.973 L 294.769 73.786 L 342.625 73.786 L 304.067 101.973 L 318.706 56.411 L 318.706 56.411 Z M 267.006 364.825 L 281.849 410.405 L 243.068 382.218 L 290.961 382.218 L 252.2 410.405 L 267.006 364.825 L 267.006 364.825 Z M 267.006 276.733 L 281.849 322.239 L 243.068 294.108 L 290.961 294.108 L 252.2 322.239 L 267.006 276.733 Z M 267.006 188.586 L 281.849 234.148 L 243.068 205.942 L 290.961 205.942 L 252.2 234.148 L 267.006 188.586 Z M 267.006 100.494 L 281.849 146 L 243.068 117.85 L 290.961 117.85 L 252.2 146 L 267.006 100.494 Z M 270.037 21.607 L 281.849 57.908 L 245.009 31.144 L 248.447 29.74 L 290.961 29.74 L 252.2 57.908 L 263.235 24.01 L 270.037 21.607 L 270.037 21.607 Z M 215.12 320.779 L 229.926 366.322 L 191.165 338.135 L 239.057 338.135 L 200.277 366.322 L 215.12 320.779 Z M 215.12 232.669 L 229.926 278.231 L 191.165 250.025 L 239.057 250.025 L 200.277 278.231 L 215.12 232.669 Z M 215.12 144.577 L 229.926 190.083 L 191.165 161.933 L 239.057 161.933 L 200.277 190.083 L 215.12 144.577 Z M 215.12 56.411 L 229.926 101.973 L 191.165 73.786 L 239.057 73.786 L 200.277 101.973 L 215.12 56.411 L 215.12 56.411 Z M 163.42 364.825 L 178.059 410.405 L 139.501 382.218 L 187.357 382.218 L 148.577 410.405 L 163.42 364.825 L 163.42 364.825 Z M 163.42 276.733 L 178.059 322.239 L 139.501 294.108 L 187.357 294.108 L 148.577 322.239 L 163.42 276.733 L 163.42 276.733 Z M 163.42 188.586 L 178.059 234.148 L 139.501 205.942 L 187.357 205.942 L 148.577 234.148 L 163.42 188.586 L 163.42 188.586 Z M 163.42 100.494 L 178.059 146 L 139.501 117.85 L 187.357 117.85 L 148.577 146 L 163.42 100.494 L 163.42 100.494 Z M 111.516 320.779 L 126.359 366.322 L 87.597 338.135 L 135.471 338.135 L 96.71 366.322 L 111.516 320.779 L 111.516 320.779 Z M 111.516 232.669 L 126.359 278.231 L 87.597 250.025 L 135.471 250.025 L 96.71 278.231 L 111.516 232.669 L 111.516 232.669 Z M 111.516 144.577 L 126.359 190.083 L 87.597 161.933 L 135.471 161.933 L 96.71 190.083 L 111.516 144.577 L 111.516 144.577 Z M 59.649 364.825 L 74.455 410.405 L 35.675 382.218 L 83.771 382.218 L 44.806 410.405 L 59.649 364.825 Z M 59.649 276.733 L 74.455 322.239 L 35.675 294.108 L 83.771 294.108 L 44.806 322.239 L 59.649 276.733 Z M 59.908 189.381 L 74.455 234.148 L 46.063 213.502 L 50.129 205.942 L 83.771 205.942 L 44.806 234.148 L 58.854 191.044 L 59.908 189.381 Z M 7.948 320.779 L 22.532 366.322 L 2.883 351.961 L 2.015 359.853 L 31.867 338.135 L 4.732 338.135 C 5.619 332.553 6.617 327.008 7.726 321.519 L 7.948 320.779 L 7.948 320.779 Z M 29.094 250.025 L 31.867 250.025 L 27.911 252.927 L 29.094 250.025 Z" fill-rule="nonzero"></path>
</svg>