<svg viewBox="0 0 600 500" xmlns="http://www.w3.org/2000/svg">
  <defs></defs>
  <path d="M 81.981 303.622 C 52.158 303.622 27.981 279.445 27.981 249.622 C 27.981 235.686 33.26 222.983 41.928 213.403 L 41.885 213.361 L 186.655 67.55 L 186.743 67.637 C 196.386 58.659 209.318 53.167 223.532 53.167 C 253.355 53.167 277.532 77.344 277.532 107.167 C 277.532 123.082 270.647 137.389 259.692 147.273 L 120.628 287.337 C 120.412 287.558 120.194 287.778 119.973 287.996 L 118.526 289.454 L 118.486 289.414 C 108.874 298.237 96.056 303.622 81.981 303.622 Z" style="fill: rgb(0, 210, 144);"></path>
  <path d="M 82.503 445.496 C 52.68 445.496 28.503 421.319 28.503 391.496 C 28.503 377.56 33.782 364.857 42.45 355.277 L 42.407 355.235 L 187.177 209.424 L 187.265 209.511 C 196.908 200.533 209.84 195.041 224.054 195.041 C 253.877 195.041 278.054 219.218 278.054 249.041 C 278.054 264.956 271.169 279.263 260.214 289.147 L 121.15 429.211 C 120.934 429.432 120.716 429.652 120.495 429.87 L 119.048 431.328 L 119.008 431.288 C 109.396 440.111 96.578 445.496 82.503 445.496 Z" style="fill: rgb(0, 113, 78); transform-box: fill-box; transform-origin: 50% 50%;" transform="matrix(0, -1, 1, 0, -0.000019, 0.000028)"></path>
  <path d="M 375.943 304.958 C 346.12 304.958 321.943 280.781 321.943 250.958 C 321.943 237.022 327.222 224.319 335.89 214.739 L 335.847 214.697 L 480.617 68.886 L 480.705 68.973 C 490.348 59.995 503.28 54.503 517.494 54.503 C 547.317 54.503 571.494 78.68 571.494 108.503 C 571.494 124.418 564.609 138.725 553.654 148.609 L 414.59 288.673 C 414.374 288.894 414.156 289.114 413.935 289.332 L 412.488 290.79 L 412.448 290.75 C 402.836 299.573 390.018 304.958 375.943 304.958 Z" style="fill: rgb(0, 113, 78); transform-origin: 446.719px 179.73px;" transform="matrix(0, 1, -1, 0, 0.000022, -0.000025)"></path>
  <path d="M 376.466 446.83 C 346.643 446.83 322.466 422.653 322.466 392.83 C 322.466 378.894 327.745 366.191 336.413 356.611 L 336.37 356.569 L 481.14 210.758 L 481.228 210.845 C 490.871 201.867 503.803 196.375 518.017 196.375 C 547.84 196.375 572.017 220.552 572.017 250.375 C 572.017 266.29 565.132 280.597 554.177 290.481 L 415.113 430.545 C 414.897 430.766 414.679 430.986 414.458 431.204 L 413.011 432.662 L 412.971 432.622 C 403.359 441.445 390.541 446.83 376.466 446.83 Z" style="fill: rgb(0, 210, 144); transform-origin: 447.242px 321.604px;" transform="matrix(-1, 0, 0, -1, -0.000042, 0.000003)"></path>
</svg>