<svg version="1.1" id="Layer_1" xmlns="http://www.w3.org/2000/svg" xmlns:xlink="http://www.w3.org/1999/xlink" x="0px" y="0px" viewBox="0 0 1000 1000" style="enable-background:new 0 0 1000 1000;">
  <ellipse style="fill: #fff;" cx="500" cy="500" rx="500" ry="500"></ellipse>
  <style type="text/css">
	.st0{fill-rule:evenodd;clip-rule:evenodd;fill:#B1B2B3;}
	.st1{fill-rule:evenodd;clip-rule:evenodd;fill:#E01E26;}
	.st2{fill-rule:evenodd;clip-rule:evenodd;fill:#FFFFFF;}
</style>
  <g transform="matrix(1.382743, 0, 0, 1.382743, -191.371737, -191.371692)">
    <path class="st0" d="M500,138.4c-199.6,0-361.5,161.9-361.5,361.6c0,199.7,161.9,361.6,361.5,361.6S861.5,699.7,861.5,500
		C861.5,300.3,699.6,138.4,500,138.4L500,138.4z M500,256.4c134.5,0,243.5,109.1,243.5,243.6c0,134.5-109.1,243.6-243.5,243.6
		S256.5,634.5,256.5,500C256.5,365.5,365.5,256.4,500,256.4z"></path>
    <path class="st1" d="M484.8,645.5c1,0,1.8,0.8,1.8,1.8c0,1-0.8,1.8-1.8,1.8l-0.1,0h0l0,0c-0.5,0-1,0-1.5-0.1
		c-0.5-0.1-1-0.2-1.5-0.3c-2.3-0.6-4.3-2-5.6-4.1c-0.4,0.1-0.9,0.1-1.3,0.2c-0.8,0.1-1.7,0.3-2.3,0.4l-0.7-3.6
		c0.9-0.2,1.6-0.3,2.3-0.4l0.5-0.1l0-0.1c-0.6-2.5-0.4-5.1,0.6-7.7c0.5-1.4,1.2-2.7,2.1-3.7c1-1.2,2.2-2,3.9-2.5l0,0
		c0,0,0.1,0,0.1,0c0.2-0.1,0.5-0.1,0.7-0.2c0.3-0.1,0.5-0.1,0.8-0.1c1.4-0.2,2.8-0.1,4.1,0.2l0,0l0,0c0.5,0.1,0.9,0.3,1.3,0.5
		c0.1,0,0.1,0.1,0.2,0.1c0.4,0.2,0.7,0.4,1,0.6c1.8,1.4,2.5,3.6,2.2,6.2c-0.3,2.3-1.4,4-2.8,5.4c-1.4,1.3-3,2.1-4.7,2.8
		c0,0-0.1,0-0.1,0c-1.3,0.5-2.6,0.9-4,1.2c0.7,0.7,1.6,1.2,2.6,1.4c0.3,0.1,0.7,0.2,1,0.2C484,645.5,484.4,645.5,484.8,645.5
		L484.8,645.5L484.8,645.5L484.8,645.5z M478.2,640.2c0,0.1,0,0.2,0.1,0.2c1.5-0.3,3-0.7,4.4-1.3c0,0,0.1,0,0.1,0
		c1.3-0.6,2.7-1.2,3.7-2.2c0.9-0.8,1.5-1.8,1.7-3.1c0.2-1.3-0.1-2.3-0.9-2.9c-0.1-0.1-0.3-0.2-0.4-0.3c0,0-0.1,0-0.1,0
		c-0.2-0.1-0.4-0.2-0.7-0.3l0,0c-0.8-0.2-1.8-0.3-2.7-0.2c-0.2,0-0.3,0.1-0.5,0.1c-0.2,0-0.3,0.1-0.4,0.1c0,0,0,0-0.1,0l0,0
		c-0.9,0.3-1.6,0.8-2.2,1.4c-0.6,0.7-1,1.6-1.4,2.7C477.9,636.6,477.8,638.4,478.2,640.2L478.2,640.2z M498.2,627.4l3.4-1.1
		c1,3,1.7,6,2.3,9c0.2,1,0.3,2.1,0.5,3.2l5-9.4c0.5-0.9,1.6-1.2,2.4-0.8c0.4,0.2,0.6,0.5,0.8,0.8c1.2,2.4,2.1,4.9,2.7,7.6
		c0.2,0.7,0.3,1.3,0.4,2c0.5-1,1-2,1.4-3.1c1.4-3,2.8-6,4.1-8.8c0.4-0.9,1.5-1.3,2.4-0.9c0.6,0.3,1,0.9,1.1,1.5l0,0
		c0.3,4.1,0.7,8.2,1.8,11.8c1,3.4,2.7,6.5,5.5,8.8l-2.3,2.8c-3.4-2.8-5.4-6.4-6.7-10.5c-0.6-1.9-1-3.9-1.3-6c-0.5,1-0.9,1.9-1.4,2.9
		c-1.4,3-2.8,5.9-4.1,8.8c-0.3,0.6-0.9,1.1-1.6,1.1c-1,0.1-1.9-0.7-1.9-1.7c-0.1-2.8-0.5-5.4-1.1-7.9c-0.3-1.2-0.6-2.4-1-3.5
		l-6.1,11.5l0,0c-0.3,0.6-0.9,0.9-1.5,1c-1,0-1.8-0.7-1.9-1.7c-0.1-3.1-0.4-6-1-8.9C499.8,633.1,499.1,630.3,498.2,627.4
		L498.2,627.4z M382.6,601.7c-1-0.2-1.7-1.1-1.5-2.1c0.2-1,1.1-1.7,2.1-1.5c0.7,0.1,1.1,0.2,1.5,0.3c0.3,0.1,0.5,0.1,0.8,0.2
		c0.1-0.3,0.1-0.7,0.1-1.2c0-1.2-0.2-2.4-0.5-3.5c-0.3-1.1-0.9-2.2-1.5-3.3l0,0l0,0c0,0,0-0.1-0.1-0.1c-0.2-0.4-0.5-0.7-0.7-1
		c-0.3-0.4-0.6-0.7-0.8-1c-1.5-1.7-3.5-3-5.8-3.9c-3.3-1.4-6.7-1.9-10-1.7c-3.4,0.2-6.7,1.1-10,2.5l0,0l0,0l0,0l0,0c0,0-0.1,0-0.1,0
		c-0.8,0.3-1.5,0.7-2.3,1.1c-0.8,0.4-1.5,0.8-2.2,1.3c-3.6,2.4-6.3,5.5-8.2,9.5c0,0,0,0.1-0.1,0.1c-1.6,3.1-2.2,6-1.7,8.8
		c0.5,2.8,2.1,5.6,4.9,8.3c3.8,3,8.5,5.1,13.2,7.2c3.1,1.4,6.1,2.8,8.9,4.4c0.1,0,0.1,0.1,0.2,0.1l0,0c2.7,1.9,4.9,3.8,6.5,5.6
		c1.8,2,2.9,4,3,5.9c0.4,4.7-3.9,6.2-7.2,7.4c-0.2,0.1-0.4,0.2-0.7,0.3l0,0c-0.9,0.4-1.9,0.7-2.7,0.9c-0.9,0.3-1.8,0.5-2.8,0.8
		c-4.9,1.2-10.1,1.8-15.3,1.9l0,0l0,0h0h0c-0.2,0-0.4,0-0.7,0c-2.2,0.1-4.2,0.2-5.9-2.2l0,0l0,0c-0.1-0.1-0.2-0.3-0.3-0.6
		c-0.1-0.2-0.2-0.4-0.3-0.6c-0.4-0.9-0.6-1.9-0.6-2.7c0-1,0.7-1.8,1.7-1.9c1,0,1.8,0.7,1.9,1.7c0,0.5,0.1,1,0.3,1.4
		c0.1,0.1,0.1,0.2,0.1,0.2c0,0,0.1,0.1,0.1,0.2l0,0l0,0c0.6,0.8,1.6,0.7,2.8,0.7c0.2,0,0.4,0,0.8,0v0l0,0l0,0
		c5-0.2,9.9-0.7,14.5-1.8c0.8-0.2,1.7-0.4,2.6-0.7c0.9-0.3,1.8-0.6,2.5-0.8l0,0c0.2-0.1,0.5-0.2,0.7-0.3c2.1-0.8,4.9-1.8,4.8-3.7
		c-0.1-1.1-0.8-2.3-2.1-3.7c-1.4-1.6-3.4-3.3-5.9-5.1c-2.5-1.5-5.5-2.8-8.5-4.2c-4.9-2.2-9.9-4.4-14-7.7l0,0c0,0-0.1-0.1-0.1-0.1
		c-3.3-3.2-5.3-6.7-6-10.3c-0.7-3.6,0-7.3,2-11.1l0,0c2.2-4.5,5.4-8.1,9.5-10.9c0.8-0.5,1.6-1,2.5-1.5c0.8-0.4,1.7-0.9,2.5-1.2
		c0,0,0.1,0,0.1-0.1l0,0l0,0c3.7-1.6,7.4-2.6,11.2-2.8c3.8-0.2,7.7,0.4,11.6,2c2.8,1.1,5.2,2.8,7.1,4.9c0.4,0.4,0.7,0.8,1.1,1.3
		c0.3,0.4,0.6,0.9,0.9,1.3c0,0,0,0.1,0.1,0.1l0,0l0,0l0,0l0,0c0.8,1.3,1.5,2.7,1.9,4.2c0.4,1.5,0.7,3,0.7,4.6c0,1.4-0.2,2.5-0.6,3.3
		l0,0c-0.7,1.3-1.8,1.9-3.4,1.5c-0.6-0.1-1-0.2-1.4-0.3C383.4,601.9,383,601.8,382.6,601.7L382.6,601.7z M393.7,635
		c-0.2-0.8,0.3-1.7,1.1-1.9c0.8-0.2,1.7,0.3,1.9,1.1l2.3,8.3c0.2,0.8-0.3,1.7-1.1,1.9c-0.8,0.2-1.7-0.3-1.9-1.1L393.7,635L393.7,635
		z M425.4,587.9l3,2c-0.4,0.6-0.7,1.3-0.8,2.1c-0.2,8.4,0.1,16.7,0.9,25c0.9,8.3,2.2,16.6,4.1,24.7c0,0.1,0,0.1,0,0.2h0
		c0.1,0.9,0,1.6-0.2,2.1c-0.3,0.6-0.7,1-1.3,1.2c-0.5,0.2-1.1,0.2-1.7,0c-0.1,0-0.1,0-0.2-0.1c-0.5-0.2-1-0.7-1.5-1.3l-2.6-2.9
		l2.7-2.4l0.5,0.6c-1.5-7.2-2.7-14.5-3.4-21.8c-0.9-8.4-1.2-16.9-1-25.4c0-0.1,0-0.2,0-0.3C424.2,590.3,424.6,589,425.4,587.9
		L425.4,587.9z M410.4,649.3c1.4,1.2,3,2.2,4.9,3c1.9,0.8,4,1.2,6.7,1.2c0,0,0.1,0,0.1,0l0,0c5.5-0.3,11-0.9,16.5-1.6
		c5.5-0.7,11-1.6,16.5-2.7c10.2-1.5,14.2-7.3,12-17.4c0-0.1-0.1-0.2-0.1-0.3c-3.5-11.5-10.5-21.9-19.5-31.6
		c-8.9-9.8-19.7-18.9-30.9-27.9c-0.8-0.6-1.9-0.5-2.5,0.3c-0.2,0.2-0.3,0.4-0.3,0.7c-0.1,0.4-0.3,1-0.5,1.6
		c-0.2,0.6-0.4,1.3-0.6,1.8l3.5,0.9c0.1-0.2,0.1-0.5,0.2-0.8c10.4,8.4,20.3,16.9,28.5,25.8c8.6,9.4,15.3,19.4,18.7,30.3
		c1.6,7.6-1.4,12-9,13.1c0,0-0.1,0-0.1,0c-5.5,1-10.9,1.9-16.3,2.7c-5.4,0.7-10.8,1.3-16.3,1.6c-2.1,0-3.8-0.4-5.2-1
		c-1.5-0.6-2.8-1.5-3.9-2.4L410.4,649.3L410.4,649.3z M539.6,627.9l3.1-1.8l0,0c1.9,3.3,2.9,7.4,3.8,11.4c0.4,1.7,0.8,3.4,1.3,4.9
		c0.8-2.4,1.8-4.6,2.8-6.9c1.1-2.5,2.2-5,2.9-7.5c0.3-0.9,1.1-1.4,2-1.3c2.1,0.3,4.1,0.8,5.9,1.7c1.8,0.9,3.4,2.2,4.7,4
		c2,2.9,2,5,2,8.2l0,0.2l-0.1,4.3c1.5-0.3,3.2-0.8,5.1-1.5c1.7-0.6,3.5-1.3,5.4-2c-2-2.8-2.6-5.5-2.1-8.2c0.5-2.6,2.1-5.1,4.5-7.5
		l0,0c0,0,0,0,0.1-0.1c0.5-0.4,1-0.8,1.6-1.1c1.6-0.9,3.3-1.2,4.9-1.1c1.7,0.2,3.2,0.9,4.3,2.2c0.3,0.3,0.6,0.7,0.8,1.1
		c1,1.8,1.1,3.6,0.7,5.4c-0.4,1.6-1.2,3.1-2.1,4.4c-1,1.5-2.1,2.6-3.3,3.7c-1.2,1-2.4,1.8-3.6,2.6c0.5,0.5,1.1,1,1.6,1.4
		c1.5,1,2.9,1.4,4.3,1.4c1.5,0,3.1-0.5,4.8-1.3c2-0.8,3.6-1.8,4.9-3c1.3-1.2,2.4-2.5,3.3-3.9l0,0l0,0c0,0,0.1-0.1,0.1-0.1
		c0.2-0.4,0.5-0.8,0.7-1.3c-1.6-5.5-3.2-11-4.4-16.6c-1.5-6.7-2.5-13.6-2.6-20.7c0-0.1,0-0.1,0-0.2c0.6-13.2,1.8-25.2,4.4-31.4
		c0.5-1.3,1.1-2.3,1.8-3.1c0,0,0.1-0.1,0.1-0.1c0.8-1,1.8-1.6,2.9-1.9l0,0c0.1,0,0.3,0,0.5,0c4.8,0.2,7.9,9,9.7,21.2
		c0.3,2.2,0.6,4.5,0.8,7c0.3,2.5,0.5,5,0.6,7.5l0,0.1h0c0,0,0,0,0,0.1c0.2,5-0.3,9.8-1.2,14.4c-0.9,4.6-2.4,9.1-4.1,13.4
		c-0.4,1-0.7,1.7-1,2.5c-1.1,2.7-2.2,5.5-3.5,8.1c0.2,0.6,0.4,1.2,0.5,1.8l4.3,10.3c7.1,4.7,14.5,8.6,22.4,11.8
		c8,3.2,16.5,5.7,25.4,7.3c0.9,0.2,1.5,1,1.5,1.9h0c-0.1,0.8-0.1,1.3-0.1,1.8c0,0.6-0.1,1.2-0.1,1.8l-3.6-0.2
		c0.1-0.8,0.1-1.3,0.1-1.8l0-0.2c-8.5-1.7-16.7-4.1-24.4-7.2c-8.2-3.3-16.1-7.4-23.5-12.4c-0.3-0.2-0.6-0.5-0.7-0.9l-4.1-9.8
		c-0.9,1.3-2,2.5-3.2,3.6c-1.7,1.4-3.6,2.6-5.9,3.6c-2.1,0.9-4.1,1.5-6.2,1.5c-2.1,0-4.2-0.5-6.4-2c-1-0.7-2-1.6-2.9-2.6
		c-0.1-0.1-0.1-0.2-0.2-0.2c-2.3,0.9-4.4,1.8-6.4,2.4c-3,1-5.7,1.7-7.9,2l0,0c-0.1,0-0.2,0-0.2,0c-1,0-1.8-0.8-1.8-1.8l0.1-6.5
		l0-0.2c0-2.5,0.1-4-1.3-6c-0.9-1.3-2-2.2-3.3-2.8c-1-0.5-2.1-0.9-3.3-1.1c-0.7,2.2-1.7,4.3-2.6,6.4c-1.6,3.6-3.2,7.2-3.8,11.1l0,0
		c-0.1,0.4-0.3,0.9-0.7,1.2c-0.8,0.6-1.9,0.5-2.5-0.3c-2-2.5-2.9-6.5-3.9-10.7C542.2,634.6,541.3,630.7,539.6,627.9L539.6,627.9
		L539.6,627.9z M581.9,640.2l0.4-0.2c1.1-0.7,2.2-1.5,3.2-2.3c1-0.8,1.9-1.8,2.7-2.9c0.7-1,1.3-2.1,1.6-3.2c0.2-0.9,0.2-1.9-0.3-2.8
		c-0.1-0.2-0.2-0.3-0.4-0.5c-0.5-0.6-1.2-0.9-2-1c-0.9-0.1-1.8,0.1-2.7,0.6c-0.3,0.2-0.6,0.4-0.9,0.6c-1.9,1.9-3.1,3.7-3.5,5.6
		c-0.3,1.7,0.1,3.6,1.6,5.5c0,0,0,0.1,0.1,0.1l0,0C581.7,639.8,581.8,640,581.9,640.2L581.9,640.2z M606.4,631.2
		c0.6-1.4,1.1-2.8,1.7-4.1c0.4-1,0.8-1.9,1-2.6c1.7-4.1,3.1-8.4,4-12.8c0.9-4.4,1.3-8.9,1.2-13.5h0l0-0.1c-0.2-2.6-0.4-5-0.6-7.4
		c-0.2-2.3-0.5-4.6-0.8-6.9c-1.5-10.1-3.5-17.5-6-18.1c-0.2,0.1-0.4,0.3-0.7,0.6c0,0-0.1,0.1-0.1,0.1c-0.4,0.5-0.8,1.3-1.2,2.2
		c-2.4,5.7-3.6,17.3-4.1,30.1c0.1,6.8,1.1,13.5,2.6,20C604.1,623,605.2,627.1,606.4,631.2L606.4,631.2z M546.4,607.6
		c-2,0-3.6,1.3-3.6,2.9c0,1.6,1.6,2.9,3.6,2.9c2,0,3.6-1.3,3.6-2.9C550,608.9,548.4,607.6,546.4,607.6z"></path>
    <path class="st1" d="M500,148.1c-194.3,0-351.9,157.6-351.9,351.9c0,194.3,157.6,351.9,351.9,351.9
		c194.3,0,351.9-157.6,351.9-351.9C851.9,305.7,694.3,148.1,500,148.1L500,148.1z M500,245.5c140.5,0,254.5,114,254.5,254.5
		c0,140.6-114,254.5-254.5,254.5S245.5,640.6,245.5,500C245.5,359.4,359.5,245.5,500,245.5z"></path>
    <path class="st2" d="M226.1,564.5c0.8-2,1.3-3.9,1.5-5.7c0.3-1.8,0.3-3.3,0-4.7c-0.5-2.4-1.5-4.2-3.2-5.4c-1.7-1.1-3.7-1.5-6.1-1
		c-3.5,0.7-6.9,4.2-10.3,10.5l-0.9,1.7c-2.2,4-4.4,6.9-6.6,8.9c-2.2,1.9-4.8,3.2-7.9,3.8c-4.4,0.9-8.4,0.2-11.9-2.1
		c-3.5-2.2-5.7-5.5-6.5-9.6c-0.4-1.8-0.5-3.7-0.4-5.4c0.1-1.8,0.4-3.6,1.1-5.4l7.9-1.5c-0.4,0.9-0.7,1.7-0.9,2.5
		c-0.2,0.8-0.4,1.6-0.6,2.5c-0.3,1.6-0.2,3.1,0,4.5c0.5,2.5,1.6,4.4,3.4,5.6c1.8,1.2,3.9,1.6,6.3,1.1c3.4-0.7,6.8-4.3,10.4-11
		l0.7-1.4c2.1-3.9,4.2-6.8,6.5-8.7c2.3-1.9,5-3.1,8.2-3.7c4.6-0.9,8.6-0.2,12,2.2c3.5,2.3,5.6,5.7,6.5,10.2c0.3,1.6,0.4,3.3,0.2,5.1
		c-0.1,1.8-0.5,3.7-1.2,5.7L226.1,564.5L226.1,564.5z M214.5,528.2l-44.1,1.5l-0.3-8l44.7-1.6c2.9-0.1,5-0.8,6.3-2.2
		c1.3-1.3,1.9-3.3,1.8-6c-0.1-2.6-0.8-4.6-2.3-5.8c-1.4-1.2-3.6-1.8-6.5-1.7l-44.7,1.6l-0.3-8l44.1-1.5c5.8-0.2,10.1,0.9,12.8,3.4
		c2.8,2.4,4.3,6.4,4.5,11.9c0.2,5.5-1,9.5-3.6,12.2C224.5,526.6,220.3,528,214.5,528.2L214.5,528.2z M158.2,525
		c-1.2,0-2.3-0.4-3.2-1.2c-0.9-0.8-1.4-1.8-1.4-3c0-1.2,0.4-2.3,1.2-3.2c0.8-0.9,1.9-1.4,3.1-1.4c1.2,0,2.3,0.4,3.2,1.2
		c0.9,0.9,1.4,1.9,1.4,3.1c0,1.2-0.3,2.3-1.2,3.1C160.5,524.5,159.4,524.9,158.2,525L158.2,525z M157.8,512.5
		c-1.2,0-2.3-0.4-3.2-1.2c-0.9-0.8-1.4-1.9-1.4-3.1c0-1.2,0.4-2.3,1.2-3.2c0.8-0.9,1.9-1.4,3.1-1.4c1.2,0,2.3,0.4,3.2,1.2
		c0.9,0.9,1.4,1.9,1.4,3.1c0,1.2-0.3,2.3-1.2,3.2C160,512,159,512.5,157.8,512.5L157.8,512.5z M230.3,484.1l-59.9-4.2l0.6-8.1
		l52.5,3.7l1.2-17.3l7.5,0.5L230.3,484.1L230.3,484.1z M233.9,451.6l-58.8-12.5l5-23.5l7.1,1.5l-3.3,15.6l17.5,3.7l3-14.3l7,1.5
		l-3,14.3l19.9,4.2l3.3-15.6l7.3,1.6L233.9,451.6L233.9,451.6z M222.6,396.5l24.3,7.9l-2.6,7.9l-24.3-7.9l-36.3,0.1l2.6-8l17.5,0.4
		c1,0,2.5,0.1,4.3,0.3l5.5,0.7c-1.8-0.9-2.7-1.3-2.8-1.4c-0.7-0.5-1.4-0.9-1.9-1.2c-0.5-0.3-1.1-0.6-1.8-1.1
		c-0.7-0.4-1.3-0.9-1.9-1.3l-14.4-10l2.6-8L222.6,396.5L222.6,396.5z M252.5,388.3l3.6-6.5l-35.7-22.6l40.8,13.4l2.7-4.8l-33-27.5
		l38,18.3l3.6-6.6l-55.1-24.6l-3.4,6.2l32.3,27.4l-40.3-13l-3.6,6.4L252.5,388.3L252.5,388.3z M251.5,306.7l17.2,20.3l6.7-8.6
		L251.5,306.7L251.5,306.7z M275.7,348.2L237,300.1l4.7-6l56,25.9l-5,6.5l-11.1-5l-8.4,10.8l7.6,9.5L275.7,348.2L275.7,348.2z
		 M302.6,314.7l-41.7-43.2l5.4-5.2l40.4,18.9l-29-30l5.5-5.3l41.7,43.2l-5.5,5.3l-40.6-19.3l29.2,30.3L302.6,314.7L302.6,314.7z
		 M351,264.4l3.6-2.1c3.9-2.2,5.8-5.3,5.8-9.1c0-3.8-2.1-9.3-6.3-16.5c-4.2-7.2-7.9-11.8-11.1-13.7c-3.2-1.9-6.8-1.7-10.8,0.6
		l-3.6,2.1L351,264.4L351,264.4z M347.8,275.2l9.3-5.4c7.1-4.1,11-8.9,11.6-14.5c0.6-5.6-1.8-13.1-7.3-22.7
		c-5.5-9.6-10.8-15.4-16-17.7c-5.1-2.2-11.2-1.3-18.3,2.8l-9.3,5.4L347.8,275.2L347.8,275.2z M385.3,254.9l-22.5-55.7l22.3-9
		l2.7,6.7l-14.8,6l6.7,16.6l13.5-5.5l2.7,6.6l-13.5,5.5l7.6,18.9l14.8-6l2.8,6.9L385.3,254.9L385.3,254.9z M414.8,242.6l7.2-1.8
		l-7.8-41.5l18,39l5.3-1.3l-2.4-42.8l12.5,40.3l7.3-1.8l-19.6-57l-6.9,1.7l2,42.4l-18-38.4l-7.1,1.8L414.8,242.6L414.8,242.6z
		 M464.2,231.6l-8.4-59.5l8-1.1l8.4,59.5L464.2,231.6L464.2,231.6z M453.8,160.1c-0.2-1.1,0.2-2.2,1-3.3c0.8-1.1,1.8-1.7,2.9-1.8
		c1.2-0.2,2.3,0.1,3.4,0.9c1.1,0.8,1.7,1.8,1.9,3c0.2,1.2-0.1,2.4-0.9,3.4c-0.8,1.1-1.8,1.7-3.1,1.8c-1.2,0.2-2.3-0.1-3.4-0.9
		C454.6,162.3,454,161.3,453.8,160.1L453.8,160.1z M491.7,195.5l2.5-0.1c3.3-0.1,5.6-1,6.9-2.5c1.3-1.6,1.9-4.3,1.8-8.2
		c-0.1-3.2-0.8-5.4-2.2-6.6c-1.4-1.2-3.8-1.8-7.3-1.7l-2.3,0.1L491.7,195.5L491.7,195.5z M491.9,200.1l1,29.3l-8.1,0.3l-2.1-60.1
		l9.8-0.3c6.5-0.2,11.2,0.8,14,3.1c2.8,2.3,4.4,6.3,4.6,11.9c0.2,4.4-0.7,7.9-2.5,10.4c-1.8,2.5-4.6,4.1-8.3,4.8l15.3,29.1l-8.7,0.3
		l-14.8-28.9L491.9,200.1L491.9,200.1z M522.7,229.7l8.4-59.5l23.8,3.3l-1,7.2l-15.8-2.2l-2.5,17.7l14.4,2l-1,7.1l-14.4-2l-2.8,20.1
		l15.8,2.2l-1,7.4L522.7,229.7L522.7,229.7z M556.8,235.4l14.5-58.3l7.9,2l-12.7,51l16.9,4.2l-1.8,7.3L556.8,235.4L556.8,235.4z
		 M611.1,234.7l20-39.3l7.1,3.6l-20.3,39.9c-1.3,2.6-1.7,4.8-1.2,6.6c0.5,1.8,2,3.3,4.4,4.5c2.4,1.2,4.4,1.5,6.2,0.8
		c1.8-0.6,3.3-2.2,4.6-4.8l20.3-39.9l7.1,3.6l-20,39.3c-2.6,5.2-5.7,8.4-9.2,9.6c-3.5,1.2-7.7,0.6-12.6-1.9c-4.9-2.5-7.8-5.5-8.9-9
		C607.7,244.2,608.4,239.9,611.1,234.7L611.1,234.7z M641.2,187c0.5-1.1,1.4-1.8,2.6-2.2c1.2-0.4,2.3-0.3,3.3,0.2
		c1.1,0.6,1.8,1.4,2.2,2.6c0.4,1.2,0.3,2.3-0.2,3.4c-0.5,1.1-1.4,1.8-2.6,2.2c-1.2,0.4-2.3,0.3-3.4-0.3c-1.1-0.5-1.8-1.4-2.2-2.5
		C640.5,189.2,640.6,188.1,641.2,187L641.2,187z M652.3,192.7c-0.6,1.1-0.7,2.2-0.3,3.4c0.4,1.1,1.1,2,2.2,2.6
		c1.1,0.5,2.2,0.6,3.4,0.3c1.2-0.4,2.1-1.1,2.6-2.2c0.5-1.1,0.6-2.2,0.2-3.4c-0.4-1.2-1.1-2.1-2.2-2.6c-1.1-0.5-2.2-0.6-3.4-0.2
		C653.7,190.8,652.8,191.6,652.3,192.7L652.3,192.7z M642.6,269.2l6.2,4.5l24.7-34l-11.9,43.3l6.2,4.5l35.3-48.6l-6.2-4.5
		l-24.5,33.7L684,225l-6.1-4.4L642.6,269.2L642.6,269.2z M677.2,295.8l39.4-45.4l6.1,5.3l-39.4,45.4L677.2,295.8L677.2,295.8z
		 M724.4,241c0.8-0.9,1.8-1.4,3.1-1.5c1.3-0.1,2.4,0.2,3.3,1c0.9,0.8,1.4,1.8,1.6,3.1c0.1,1.3-0.2,2.4-1,3.4
		c-0.8,0.9-1.9,1.5-3.2,1.6c-1.3,0.1-2.4-0.2-3.4-1.1c-0.9-0.8-1.4-1.8-1.5-3.1C723.2,243,723.6,241.9,724.4,241L724.4,241z
		 M702.3,320.6l-4.5-5.1l36.7-49.4l5.4,6.2l-25.2,33.1L751,285l5.3,6.2L702.3,320.6L702.3,320.6z M716.2,336.9l13.8,19.7l6.1-4.3
		l-9.1-13.1l16.7-11.7l8.4,11.9l5.9-4.1l-8.4-11.9l14.6-10.2l9.1,13.1l5.9-4.2l-13.8-19.7L716.2,336.9L716.2,336.9z M769.2,357.1
		l17-8.6l1,2c1.6,3.2,2.1,5.6,1.6,7.4c-0.5,1.8-2.2,3.4-5.1,4.8c-3.5,1.8-6.2,2.4-8.2,1.9c-2-0.5-3.7-2.2-5.2-5.2L769.2,357.1
		L769.2,357.1z M765.1,359.2L739,372.6l-3.7-7.2l53.5-27.3l4.4,8.7c3,5.8,4,10.5,3.1,14c-0.9,3.5-3.9,6.6-8.9,9.2
		c-3.9,2-7.4,2.7-10.5,2.2c-3.1-0.5-5.7-2.4-7.8-5.5l-19.9,26.2l-3.9-7.7l19.9-25.6L765.1,359.2L765.1,359.2z M761.2,394.7l-7.9,2.6
		c-0.4,2-0.6,4-0.5,5.8c0.1,1.8,0.4,3.5,0.9,5.1c1.4,4.4,4,7.5,7.7,9.3c3.7,1.9,7.8,2.1,12.2,0.7c3.1-1,5.6-2.6,7.6-4.7
		c2-2.1,3.8-5.3,5.4-9.4l0.5-1.5c2.7-7.1,5.6-11.1,8.9-12.2c2.4-0.8,4.5-0.7,6.4,0.3c1.9,1,3.2,2.7,4,5.1c0.4,1.4,0.6,2.8,0.6,4.4
		c0,0.9-0.1,1.7-0.3,2.5c-0.1,0.8-0.3,1.7-0.6,2.6l7.7-2.5c0.4-1.9,0.5-3.7,0.4-5.5c-0.1-1.8-0.5-3.6-1.1-5.4c-1.3-4-3.9-7-7.6-8.8
		c-3.8-1.8-7.8-2-12.1-0.6c-3,1-5.4,2.5-7.4,4.7c-2,2.2-3.8,5.4-5.5,9.6l-0.7,1.8c-2.6,6.7-5.6,10.6-9,11.7
		c-2.3,0.7-4.4,0.6-6.2-0.3c-1.8-0.9-3.1-2.6-3.9-4.9c-0.4-1.3-0.6-2.9-0.6-4.7C760.5,398.7,760.7,396.8,761.2,394.7L761.2,394.7z
		 M761.6,431.5l58.6-13.5l1.8,7.9l-58.6,13.5L761.6,431.5L761.6,431.5z M832,414.9c1.1-0.3,2.3,0,3.4,0.7c1.1,0.7,1.8,1.6,2.1,2.8
		c0.3,1.2,0.1,2.3-0.6,3.4c-0.7,1.1-1.6,1.8-2.8,2.1c-1.2,0.3-2.4,0.1-3.5-0.6c-1.1-0.7-1.8-1.6-2.1-2.9c-0.3-1.2-0.1-2.3,0.6-3.4
		C829.8,415.9,830.8,415.2,832,414.9L832,414.9z M767.2,458.4l52.2-6.4l-1.4-11.1l7.4-0.9l3.7,30.2l-7.4,0.9l-1.4-11.1l-52.2,6.4
		L767.2,458.4L767.2,458.4z M770,485.4l60.1-1l0.4,24l-7.2,0.1l-0.3-15.9l-17.9,0.3l0.3,14.6l-7.2,0.1L798,493l-20.3,0.4l0.3,15.9
		l-7.5,0.1L770,485.4L770,485.4z M780.8,519.3c-1.4,1.7-2.5,3.3-3.3,4.9c-0.8,1.6-1.3,3.1-1.5,4.5c-0.3,2.4,0.1,4.5,1.3,6.1
		c1.2,1.6,3,2.6,5.4,3c3.5,0.5,7.9-1.7,13.2-6.6l1.4-1.3c3.3-3.1,6.4-5.1,9.1-6.2c2.7-1.1,5.6-1.4,8.7-1c4.5,0.6,8,2.6,10.6,5.9
		c2.6,3.3,3.6,7,3,11.2c-0.3,1.9-0.7,3.6-1.4,5.3c-0.7,1.7-1.6,3.3-2.8,4.8l-8-1.1c0.7-0.7,1.2-1.4,1.7-2.1c0.5-0.7,0.9-1.4,1.3-2.2
		c0.8-1.4,1.2-2.8,1.4-4.2c0.4-2.5-0.1-4.7-1.4-6.4c-1.3-1.7-3.1-2.8-5.6-3.1c-3.4-0.5-7.9,1.9-13.4,7.1l-1.2,1.1
		c-3.2,3-6.2,5.1-9,6.1c-2.7,1-5.7,1.3-8.9,0.9c-4.6-0.6-8.2-2.6-10.7-6c-2.5-3.3-3.5-7.2-2.8-11.8c0.2-1.6,0.7-3.2,1.4-4.9
		c0.7-1.7,1.7-3.4,3-5L780.8,519.3L780.8,519.3z M765.8,552.9l58.6,13.5l-1.8,7.9L764,560.8L765.8,552.9L765.8,552.9z M836.3,568.8
		c1.1,0.3,2,0.9,2.8,2.1c0.7,1.1,0.9,2.2,0.7,3.4c-0.3,1.2-1,2.1-2,2.8c-1.1,0.7-2.2,0.9-3.5,0.7c-1.2-0.3-2.2-1-2.9-2.1
		c-0.7-1.1-0.9-2.3-0.6-3.5c0.3-1.2,1-2.1,2.1-2.8C834,568.8,835.1,568.6,836.3,568.8z"></path>
    <path class="st2" d="M433.6,823l11.7-51.9l-8.5-1.4l1.6-7.1l17.1,2.8l-13.3,59L433.6,823L433.6,823z M490,787.7
		c0.4-4.1,0.1-7.2-0.8-9.2c-1-2-2.7-3.1-5.2-3.3c-2.4-0.2-4.2,0.7-5.5,2.5c-1.3,1.8-2.1,4.9-2.6,9.1c-0.4,4.4-0.2,7.5,0.7,9.4
		c0.9,1.9,2.6,2.9,5.2,3.1c2.5,0.2,4.3-0.6,5.7-2.5C488.7,794.9,489.6,791.9,490,787.7L490,787.7z M486.8,803.3
		c-1.2,0.9-2.5,1.6-3.9,2c-1.4,0.4-2.8,0.6-4.3,0.5c-4.6-0.3-7.8-2-9.5-5c-1.8-3-2.3-7.7-1.7-14.3c0.7-6.7,2.5-11.6,5.3-14.6
		c2.8-3,6.9-4.3,12.3-3.9c5.1,0.4,8.8,2.4,11.1,5.9c2.2,3.6,3,8.8,2.3,15.6c-0.6,5.4-2.2,11-4.9,16.5c-2.7,5.6-7.7,13.1-14.9,22.7
		l-10.2-0.8c2.4-3,4.6-5.8,6.7-8.5c1.8-2.3,3.4-4.5,4.9-6.4C482.5,809.7,484.8,806.5,486.8,803.3L486.8,803.3z M524.2,787.2
		c-0.4-4.1-1.3-7.1-2.7-9c-1.4-1.8-3.3-2.7-5.8-2.5c-2.4,0.2-4,1.3-4.9,3.3c-0.9,2-1.1,5.1-0.7,9.3c0.4,4.4,1.3,7.5,2.5,9.2
		c1.3,1.7,3.2,2.4,5.7,2.3c2.5-0.2,4.2-1.3,5.1-3.3C524.3,794.5,524.6,791.4,524.2,787.2L524.2,787.2z M524.2,803
		c-1,1.1-2.2,1.9-3.5,2.5c-1.2,0.6-2.6,1-4.2,1.1c-4.6,0.3-8.1-0.8-10.4-3.5c-2.4-2.7-3.9-7.3-4.5-13.8c-0.7-6.7,0.1-11.8,2.3-15.2
		c2.2-3.4,6-5.3,11.3-5.7c5.1-0.4,9.2,1,12.1,4.2c2.9,3.2,4.7,8.2,5.4,15c0.6,5.4,0.1,11.1-1.5,17c-1.5,5.9-4.9,14.1-10.1,24.6
		l-10.2,0.8c1.7-3.3,3.4-6.4,4.9-9.3c1.3-2.6,2.5-4.9,3.5-7C521.2,810,522.8,806.4,524.2,803L524.2,803z M546.7,826.1l11.2-34.3
		c1-3,1.6-5.7,1.9-8.2c0.3-2.5,0.2-4.7-0.2-6.5c-0.6-2.6-1.5-4.4-2.8-5.6c-1.3-1.1-3-1.5-5.1-1.1c-2.4,0.4-3.8,1.5-4.5,3.3
		c-0.6,1.8-0.5,4.8,0.4,8.8l0.5,2.1l-8.6,1.4l-0.4-1.1l-0.4-1.9c-1.3-5.6-0.9-10,1.1-13.3c2-3.3,5.6-5.4,10.8-6.3
		c4.7-0.8,8.7-0.1,12,2c3.3,2.1,5.5,5.5,6.5,10c0.6,2.7,0.7,5.5,0.3,8.5c-0.2,1.6-0.6,3.3-1,5c-0.5,1.7-1.1,3.7-2,6.1l-7.9,21.3
		l17.8-3l1.7,7.5L546.7,826.1z"></path>
    <path class="st1" d="M625.4,537.7v-21.2c10.8,5.5,22.9,13.5,34.6,20.9c-3.1-0.3-6.1-0.7-9.2-1c-5.9-1.5-11.9-3.1-18.4-2.3
		L625.4,537.7L625.4,537.7z M625.4,509.8c16.7,7.1,32.1,18,46.3,32.7c-4.7-7.3-8.2-14.9-8.8-23c-5.8-10.1-24.4-15.6-37.5-11.6V509.8
		L625.4,509.8z M625.4,504.3v-14.5c7-0.4,15.6-0.1,26.6,1.1c4.1-0.5,8.2,5.9,12.3,19.2C650.8,503.4,637.7,500.2,625.4,504.3
		L625.4,504.3z M625.4,485.7v-9c3.8-0.9,7.4-2.6,10.7-5.1c7.9,4.1,15.2,8.8,21.2,14.6C646.1,486,635.5,485.1,625.4,485.7
		L625.4,485.7z M625.4,472.8c1.2-0.7,2-2,2.3-4.1c0.4-3.8-0.6-6.4-2.3-8.3V472.8L625.4,472.8z M625.4,445.4v-74.7
		c2.8,3.5,4.9,7.4,5.9,11.8c7,30.2,6.5,51.1-3.1,60.9C627.3,444.2,626.4,444.8,625.4,445.4z M625.4,370.7v74.7
		c-2.3,1.3-4.9,2.1-7.8,2.6v-98.4c0.7,3.6,1.3,7.4,1.7,11.2c0.1,2,0.5,4,2.3,5.8C623,367.9,624.3,369.3,625.4,370.7L625.4,370.7z
		 M625.4,460.4v12.4c-1.9,1.2-4.7,1-7.8,0.4v-16.6C620.8,457.3,623.6,458.5,625.4,460.4L625.4,460.4z M625.4,476.6v9
		c-2.6,0.1-5.2,0.4-7.8,0.8v-9.1C620.3,477.4,622.9,477.2,625.4,476.6L625.4,476.6z M625.4,489.8v14.5c-1.6,0.5-3.2,1.2-4.8,2
		c-0.9,0.6-1.8,1-3,0.9v-16.5C620,490.3,622.6,490,625.4,489.8L625.4,489.8z M625.4,508v1.9c-0.8-0.3-1.6-0.7-2.4-1
		C623.8,508.5,624.6,508.2,625.4,508L625.4,508z M625.4,516.5v21.2l-0.3,0.1c-2.9-1.9-5.4-4-7.5-6.2v-18.6
		C620.1,513.9,622.7,515.1,625.4,516.5L625.4,516.5z M617.6,541.6c1.6,0,3.2,0,4.8,0c-1.7-1.3-3.4-2.6-4.8-3.9V541.6z M617.6,349.6
		V448c-4.8,0.8-10.2,0.7-15.8,0.3V324l0.1,0C611.5,329.3,615.5,338.8,617.6,349.6L617.6,349.6z M617.6,456.6v16.6
		c-1.5-0.3-3-0.6-4.5-1l-11.2-2.6v-14.7l5.8,0.1C611.1,455.5,614.6,455.9,617.6,456.6L617.6,456.6z M617.6,477.4v9.1
		c-5.4,0.8-10.6,2.2-15.8,4.6v-17.2C607.4,476,612.7,477.2,617.6,477.4L617.6,477.4z M617.6,490.6c-6.8,1.1-11.6,3-15.8,5.2v5.2
		c4.9,1.3,9.6,2.8,13.1,5.2c1,0.6,1.9,0.9,2.7,0.9V490.6L617.6,490.6z M617.6,512.9v18.6c-6-6.4-8.8-13.7-10.2-21.5
		C610.6,510.5,614,511.5,617.6,512.9L617.6,512.9z M617.6,537.7v3.9c-5.8-0.2-11.2-0.9-15.8-2.7v-31.7l3.7,1c-1.5,3.5-1.2,6.7,0,9.9
		C607.2,525.5,611.3,531.9,617.6,537.7z M601.9,324v124.2c-4.1-0.3-8.4-0.8-12.6-1.2v-15.8l5.3-18.6c2.8-15.5,1.3-30.4-5.3-44.5
		v-10.5c1.4-2.5,2.1-5.6,2.4-8.8c3-7.6,3.6-15.4,3.1-23.3c-0.8-2.4-1.1-4.7,1.4-5.8C598.4,318.7,599.4,323.2,601.9,324L601.9,324z
		 M601.9,454.9v14.7l-5.2-1.2c-2.9-0.7-5.5-0.7-7.4,0.4v-14.2L601.9,454.9L601.9,454.9z M601.9,473.8v17.2
		c-3.7,1.7-7.3,3.9-10.9,6.8l-1.7-0.7v-21.9c3.5-2.2,7.5-2.7,12-1.6L601.9,473.8L601.9,473.8z M601.9,495.9
		c-2.1,1.1-4.1,2.4-5.9,3.6c2,0.5,4,1,5.9,1.6V495.9L601.9,495.9z M601.9,507.2v31.7c-1.5-0.6-2.9-1.2-4.2-2
		c-3.7-3.6-6.6-7.2-8.4-10.9v-18.9c0.6-1,1.2-2,2.1-2.9L601.9,507.2L601.9,507.2z M589.3,537.2c0.8-0.2,1.6-0.4,2.5-0.7
		c-0.9-0.9-1.7-1.8-2.5-2.7V537.2L589.3,537.2z M589.3,415.9c1.5-8,2.4-16.2,2.7-24.5c-1.1-1.6-2-3.3-2.7-5V415.9z M589.3,357.7
		v10.5c-0.5-1.2-1.1-2.3-1.7-3.4c-0.4-0.1-0.7-0.2-0.9-0.3v-3.1c0.2-0.3,0.4-0.6,0.7-0.9C588.1,359.6,588.7,358.7,589.3,357.7
		L589.3,357.7z M589.3,386.4v29.5c-0.7,3.8-1.6,7.6-2.6,11.3v-57.3c0.5,1,0.7,2.3,0.6,3.9C586.7,378.2,587.5,382.4,589.3,386.4
		L589.3,386.4z M589.3,431.3v15.8c-0.9-0.1-1.7-0.2-2.6-0.2v-6.4L589.3,431.3L589.3,431.3z M589.3,454.6v14.2
		c-0.7,0.4-1.3,1-1.8,1.9c-0.3,0.3-0.5,0.7-0.8,1v-17.2L589.3,454.6L589.3,454.6z M589.3,475.2v21.9c-0.9-0.4-1.8-0.7-2.6-1v-18.9
		C587.5,476.5,588.4,475.8,589.3,475.2L589.3,475.2z M589.3,507.1V526c-1.9-3.8-2.7-7.5-2.4-11.4C587.3,512,587.9,509.5,589.3,507.1
		L589.3,507.1z M589.3,533.8v3.4c-0.9,0.2-1.8,0.4-2.6,0.5v-7.4C587.4,531.5,588.3,532.6,589.3,533.8L589.3,533.8z M586.7,349.2
		v-28.4c2.2,0.8,1.7,5.3,1.3,9.5C588.7,336.9,588.7,343.3,586.7,349.2z M586.7,320.8v28.4c-1.5,4.4-4.2,8.5-8.5,12.3l-0.1,0v-36.4
		c1.5-3,3.6-4.4,6.3-4.2C585.3,320.6,586.1,320.5,586.7,320.8L586.7,320.8z M586.7,361.3c-1,1.5-1,2.5,0,3.1V361.3L586.7,361.3z
		 M586.7,369.9v57.3c-2,7.3-4.6,14.5-7.8,21.6l-0.9-0.1v-81.3c0.7,0,1.4-0.1,2.1-0.1C583.5,367.1,585.7,368,586.7,369.9L586.7,369.9
		z M586.7,440.5l-1.8,6.3c0.6,0,1.2,0.1,1.8,0.1V440.5L586.7,440.5z M586.7,454.6v17.2c-2.8,3.6-5.5,7.3-8.6,10.4v-27.8L586.7,454.6
		L586.7,454.6z M586.7,477.2c-1.3,1.3-2.6,2.8-3.8,4.6c-1,1.6-2.4,3.5-4.9,5.8v4.1c1.2,1.1,4.5,2.7,8.6,4.4V477.2L586.7,477.2z
		 M586.7,530.3v7.4c-3.3,0.3-6.1-0.2-8.6-1.6V501c3.2,1.3,6.1,2.2,8.5,2c-3.2,3.3-5.4,7.4-4.3,14.8
		C582.6,522.1,584,526.2,586.7,530.3z M578,325.1v36.4c-3.7,0.5-7.2,1.1-10.2,2.1v-18.3c3.3-5.2,6.1-10.5,8.7-15.8
		C576.9,327.7,577.4,326.3,578,325.1L578,325.1z M578,367.4v81.3c-3.4-0.4-6.9-0.9-10.2-1.2v-78.7
		C570.9,367.8,574.4,367.6,578,367.4L578,367.4z M578,454.3v27.8c-2.1,2.1-4.5,3.8-7.3,5.1c-1,0.2-2,0.3-3,0.3v-33.5L578,454.3
		L578,454.3z M578,487.7v4.1l-0.1,0c-2.5-1.3-2.7-2.4-0.7-3.4C577.5,488.1,577.8,487.9,578,487.7L578,487.7z M578,501v35.1
		c-1.6-0.9-3-2-4.3-3.5c-2.4-1.9-4.4-3.7-5.9-5.4v-15.4c1.5-2,3.4-3.8,5.7-5.5c1.5-1.7,2.5-3.7,2-6.4
		C576.4,500.2,577.2,500.6,578,501L578,501z M567.8,502.6c0.7-1,1.5-2.1,2.1-3.2c1.7-3.2,2.3-5.5-1-4.5c-0.4,0-0.7,0-1.1,0V502.6z
		 M567.8,345.3v18.3c-9.1,2.9-14.9,8.3-15,18.2c-1.7,7.2-3.4,14.4-5.1,21.5c-1.8,3.2-3.6,6.2-5.5,9.2v-40.6c2.5-1.6,4.9-3.3,7.3-5.1
		C557.1,360,563,352.8,567.8,345.3L567.8,345.3z M567.8,368.8c-3.9,1.2-6.9,3.7-8.3,8.7c0.2,7.8-0.7,15.4-4.3,22.7
		c-4.2,7.1-8.6,14-13.1,20.3v26.9c8.1-1.2,16.8-0.9,25.7,0V368.8L567.8,368.8z M567.8,454.1v33.5c-6.5,0.2-11.7-3.2-16.7-7.2
		c-3.3,1.4-6.4,2.2-9,0v-26c2.3-0.5,4.6-0.8,6.7-0.8L567.8,454.1L567.8,454.1z M567.8,494.9v7.7c-5.9,8.1-14.2,14-25.7,17V488
		c1,0.5,2.2,1.1,3.4,1.6c2,0,4,0,6.1,0C556.2,492.4,561.4,494.5,567.8,494.9L567.8,494.9z M567.8,511.7c-1.3,1.7-2.3,3.5-3,5.5
		c-1.2,3-0.1,6.3,3,10V511.7L567.8,511.7z M542.1,366.6c5.5-3.8,10-7.8,13-12.6l-13,1.3V366.6L542.1,366.6z M542.1,351l11.2-0.8
		c-2.3-6.5-6.2-12.1-11.2-17V351L542.1,351z M542.1,325.7c9.1,6.1,13.8,14.9,15.7,25.4c0.7-0.9,1.5-1.7,2.2-2.6
		c4.8-8.4,7.5-17-0.5-26.9c-1.9-2.7-4.3-5.2-9.1-6.7c-4.1-1.5-6.5-3.5-6.3-6.4c-0.6-1.3-1.3-2.5-2-3.5V325.7z M542.1,305v20.7
		c-0.9-0.6-1.9-1.2-3-1.8c-2.3-1.1-4.7-2.1-7.1-2.9v-21.5C536.7,299.9,539.9,302,542.1,305L542.1,305z M542.1,333.1
		c-2.8-2.7-5.9-5.2-9.2-7.5c-0.3-0.2-0.6-0.3-0.9-0.4v1.9c7.9,8,6.4,16.2,0,24.2v0.3l10.1-0.7V333.1L542.1,333.1z M542.1,355.3v11.3
		c-3.1,2.1-6.5,4.2-10.1,6.2v-16.6L542.1,355.3L542.1,355.3z M542.1,371.9c-3.3,2.2-6.7,4.3-10.1,6.5v48.3
		c3.6-4.5,6.9-9.2,10.1-14.2V371.9L542.1,371.9z M542.1,420.5v26.9c-3.5,0.5-6.9,1.3-10.1,2.4v-16.3
		C535.5,429.5,538.8,425.1,542.1,420.5L542.1,420.5z M542.1,454.4v26c-0.6-0.5-1.1-1.1-1.6-1.9c-2.1-6.2-4-9-6.7-8.6
		c-0.6,1.6-1.2,3.2-1.8,4.8V458C535.5,456.3,538.9,455.1,542.1,454.4L542.1,454.4z M542.1,488v31.6c-3.1,0.8-6.5,1.5-10.1,1.8v-29.4
		c0.9-2.6,1.7-5.4,2.2-8.4c0.5,0,0.9-0.1,1.4-0.1C537.3,485,539.4,486.5,542.1,488L542.1,488z M532,342.7v-10.1
		c0.9,2.2,1.3,4.5,1.1,7.2C532.8,340.8,532.4,341.8,532,342.7z M532,299.5V321c-2.1-0.7-4.2-1.2-6.4-1.6V300
		c0.4-0.1,0.8-0.3,1.2-0.4C528.7,299.4,530.4,299.3,532,299.5L532,299.5z M532,325.2v1.9l-0.2-0.2
		C530.2,325.4,530.9,324.9,532,325.2L532,325.2z M532,332.6c-1.3-3-3.5-5.7-6.4-8.1V350c0.7,0.5,1.5,1,2.4,1.5c0.8-3,2.7-5.7,4-8.8
		V332.6L532,332.6z M532,351.3v0.3l-0.3,0L532,351.3L532,351.3z M532,356.3v16.6c-2.1,1.2-4.2,2.4-6.4,3.6v-16.6
		c1.4-1.1,2.8-2.2,4.2-3.3L532,356.3L532,356.3z M532,378.4v48.3c-2.1,2.6-4.2,5.1-6.4,7.4v-51.5C527.7,381.2,529.9,379.8,532,378.4
		L532,378.4z M532,433.5c-2.1,2.4-4.2,4.8-6.4,7v12.1c2.1-1.1,4.2-2,6.4-2.8V433.5L532,433.5z M532,458v16.7c-2,5.3-4,10.6-6.4,15.8
		v-29C527.8,460.1,529.9,459,532,458L532,458z M532,492.1v29.4c-1.3,0.1-2.6,0.3-4,0.3c-0.8,0.2-1.6,0.3-2.4,0.4v-17.6
		C528.2,500.9,530.4,496.8,532,492.1z M525.6,300v19.4c-1.4-0.2-2.8-0.4-4.2-0.5v-17.3C522.7,301.1,524.1,300.5,525.6,300L525.6,300
		z M525.6,324.5V350c-1.7-1.2-3.1-2.6-4.2-4.2v-19c0.6-1.4,1.3-2.8,2.1-4C524.2,323.4,524.9,323.9,525.6,324.5L525.6,324.5z
		 M525.6,359.8v16.6c-1.4,0.8-2.8,1.6-4.2,2.4v-16C522.8,361.9,524.2,360.9,525.6,359.8L525.6,359.8z M525.6,382.6v51.5
		c-1.4,1.5-2.8,2.9-4.2,4.4v-52.8C522.8,384.6,524.2,383.6,525.6,382.6L525.6,382.6z M525.6,440.5v12.1c-1.5,0.8-2.9,1.7-4.2,2.6
		v-10.6C522.8,443.3,524.2,441.9,525.6,440.5L525.6,440.5z M525.6,461.4v29c-1.3,2.7-2.7,5.4-4.2,8.1v-34.5
		C522.8,463.2,524.2,462.3,525.6,461.4L525.6,461.4z M525.6,504.6v17.6c-1.5,0.2-2.9,0.1-4.2-0.1v-12.2
		C522.9,508.1,524.3,506.4,525.6,504.6L525.6,504.6z M521.3,551.7v-25.4c5.1,4.8,3.1,11.1,1.8,17.2
		C522.8,546.8,522.2,549.5,521.3,551.7L521.3,551.7z M521.3,357v-5c1,0.9,2.1,1.7,3.3,2.6C523.6,355.3,522.5,356.2,521.3,357z
		 M521.3,301.7v17.3c-2-0.1-4.2,0-6.4,0.3c-1.6,1-3.3,2-4.9,2.8v-11.9C512.9,306.6,516.8,303.8,521.3,301.7L521.3,301.7z
		 M521.3,326.8v19c-2.2-3.1-3.2-6.9-3.3-11.1C519.4,332.3,520.2,329.5,521.3,326.8L521.3,326.8z M521.3,351.9
		c-8.1-7.2-9.2-16-4.4-26.1c0.7-1.6,1.3-3-1.2-2.9c-2,0.3-4,0.7-5.8,1.4v39.1c3.9-1.7,7.7-3.9,11.3-6.4V351.9L521.3,351.9z
		 M521.3,362.8v16c-3.7,2.1-7.5,4.3-11.3,6.7v-16.3C514.1,367.3,517.9,365.2,521.3,362.8L521.3,362.8z M521.3,385.6v52.8
		c-3.6,3.5-7.3,6.7-11.3,9.7v-53C513.7,391.6,517.5,388.5,521.3,385.6L521.3,385.6z M521.3,444.6c-3.6,3.3-7.4,6.3-11.3,8.9v11.7
		c2.2-2,4.5-4.1,6.8-6.2c1.5-1.4,3-2.6,4.5-3.7V444.6L521.3,444.6z M521.3,464.1v34.5c-3,5-6.6,9.9-11.3,14.5v-40.5
		C513.9,469.4,517.7,466.6,521.3,464.1L521.3,464.1z M521.3,509.8c-2.5,2.7-5.4,5.1-8.4,7.3c2.3,2.6,5.1,4.3,8.4,4.9V509.8
		L521.3,509.8z M521.3,526.3v25.4c-1.2,3.2-2.8,5.5-4.8,6.7c0-4.3-0.1-8.6-0.1-12.8c-1.1-4.2-3.2-8.3-6-12.5
		c-0.1-0.1-0.3-0.3-0.4-0.4v-7.2L521.3,526.3L521.3,526.3L521.3,526.3z M510,568.7c6.5-7.9,4.5-17.8,0-28.2V568.7z M510,310.2v11.9
		c-2.3,1.3-4.7,2.3-7,3.1v-3.7l3.3-5.2C507.3,314,508.6,312,510,310.2L510,310.2z M510,324.3c-2.8,1.1-5.2,2.8-7,5.6V366
		c2.4-0.7,4.8-1.6,7-2.6V324.3L510,324.3z M510,369.2v16.3c-0.5,0.3-0.9,0.6-1.4,0.9c-2-2.3-4-4.6-5.6-6.9v-7.3
		C505.4,371.3,507.8,370.3,510,369.2L510,369.2z M510,395.1v53c-1.7,1.3-3.5,2.5-5.2,3.7c-0.6,0.3-1.2,0.6-1.8,0.9V403
		C505.2,400.1,507.6,397.5,510,395.1L510,395.1z M510,453.5v11.7c-2.4,2.1-4.7,4.1-7,5.9v-13.4C505.4,456.5,507.7,455.1,510,453.5
		L510,453.5z M510,472.6v40.5c-0.2,0.2-0.4,0.4-0.6,0.6c-1.9,1.7-4,3.2-6.4,4.4v-39.7c0.5-0.3,1-0.6,1.4-1
		C506.3,475.7,508.2,474.1,510,472.6L510,472.6z M510,525.5v7.2c-2.6-2.8-3.8-5.6-4.2-8.4c0.8,0.3,1.6,0.7,2.4,1L510,525.5
		L510,525.5z M510,540.5c-0.9-2-1.8-3.9-2.8-5.9c-1.8-2.1-3.1-4.5-4.3-7.3V556c2.1,5.5,2.3,11.5,1.4,17.7c2.4-1.6,4.2-3.2,5.7-5
		V540.5L510,540.5z M503,394.1V387l3.3,4.1C505.2,391.9,504.2,392.6,503,394.1L503,394.1z M503,308.5v-7.1c2,0.8,2,2.7,1.1,5.1
		C503.7,307.2,503.3,307.8,503,308.5z M503,301.4v7.1c-6.6,12.1-10.3,26.1-9.9,42.8c2.1,6.1,4.1,12.1,6.2,18.2
		c-1.1,0-2.2-0.1-3.3-0.1c-3.4-4.8-6.4-9.5-8.9-14.2v-50.8c3.7-3.1,8.4-4.1,14.1-3.4C501.9,301.1,502.5,301.2,503,301.4L503,301.4z
		 M503,321.5l-2.9,4.4c1-0.2,1.9-0.5,2.9-0.8V321.5L503,321.5z M503,329.9c-1.1,1.7-2,3.8-2.6,6.4c-3.5,10.1-1.5,20.1,1,30.2
		c0.6-0.1,1.1-0.3,1.7-0.5V329.9L503,329.9z M503,372.2v7.3c-1.5-2-2.7-4.1-3.3-6.1C500.8,373,501.9,372.6,503,372.2L503,372.2z
		 M503,387l-2.7-3.4c-1.2-3.4-3.7-6.1-6.4-8.7c-1.1-3-2.7-5-4.3-6.6c-0.9-1.3-1.7-2.6-2.4-3.8v34.6c1.9,2.7,4.1,5.2,6.8,7.5
		c2.3-2.9,4.5-5.9,6.8-8.8c0.8-1.7,1.6-2.8,2.3-3.7V387L503,387z M503,403v49.8c-6.2,3-11.6,5-15.9,5.5v-26.7
		c1.4-2.5,2.8-4.9,3.8-7.4C494.3,415.7,498.4,408.8,503,403L503,403z M503,457.7c-4.1,2.1-8.3,3.9-12.7,5.1c0.3,4.6-0.2,9-3.1,12.6
		v4.3c5.2-1.4,10.5-4.6,15.9-8.7V457.7L503,457.7z M503,478.4v39.7c-4.3,2.1-9.4,3.1-15.9,2.6v-35.4
		C493.8,483.1,499.2,480.8,503,478.4L503,478.4z M503,527.3V556c-0.5-1.2-1-2.4-1.6-3.5c-3.4-6.1-6.8-12.1-12.7-16.2
		c-0.6-0.7-1.1-1.4-1.5-2v-9.4c0.3-0.5,0.8-0.7,1.3-0.5c3.6,1.7,7.2,1.9,10.7,0.6c2.2-0.7,3-0.2,3.2,0.8
		C502.6,526.3,502.8,526.8,503,527.3L503,527.3z M487.1,583.8v-19.3c1.3,2.5,1.9,5,1.6,7.5c0.7,2.8,1.4,5.7,2.2,8.5
		C488.9,580.9,487.7,582.1,487.1,583.8L487.1,583.8z M487.1,556.6c2.5,3.3,4.4,7.5,5.7,13c0,4,0.5,7.9,1.6,11.9
		c5.2-2.9,8.2-7.5,6.5-16.1c-1.9-8.6-5.5-17.5-13.8-27.4V556.6L487.1,556.6z M487.1,421.1l4.1-8.1c-1.5-1.4-2.9-2.9-4.1-4.4V421.1z
		 M487.1,304.4v50.8c-0.7-1.3-1.4-2.6-2-3.9v-44.8C485.8,305.7,486.4,305,487.1,304.4L487.1,304.4z M487.1,364.5v34.6
		c-0.7-1-1.4-2-2-3.1v-34.8C485.8,362.3,486.4,363.4,487.1,364.5L487.1,364.5z M487.1,408.7v12.4l-2,3.9v-18.8
		C485.8,407,486.4,407.9,487.1,408.7L487.1,408.7z M487.1,431.5v26.7c-0.7,0.1-1.4,0.1-2,0.1v-22.8
		C485.8,434.1,486.4,432.8,487.1,431.5L487.1,431.5z M487.1,475.5v4.3l-0.1,0c-0.8,0.2-1.4,0.2-1.8,0v-2.6c0.2-0.2,0.5-0.3,0.8-0.4
		C486.4,476.3,486.8,475.9,487.1,475.5L487.1,475.5z M487.1,485.3v35.4c-0.6,0-1.3-0.1-2-0.2v-34.6
		C485.8,485.7,486.5,485.5,487.1,485.3L487.1,485.3z M487.1,524.8v9.4c-1-1.8-1.3-3.6-1-5.4C486.3,527.1,486.6,525.6,487.1,524.8
		L487.1,524.8z M487.1,538v18.6c-0.4-0.6-0.9-1.2-1.4-1.7c-0.2-0.2-0.4-0.4-0.6-0.6v-17.3c0.2-0.5,0.6-0.5,1.2,0.1
		C486.6,537.4,486.9,537.7,487.1,538L487.1,538z M487.1,564.5v19.3c-0.4,1-0.5,2.1-0.6,3.4c-0.6,1.4-1,2.9-1.4,4.3v-30.2
		C485.9,562.4,486.6,563.4,487.1,564.5L487.1,564.5z M485.1,470.7v-6.9c0.3-0.1,0.5-0.1,0.8-0.2L485.1,470.7z M485.1,306.5v44.8
		c-2.1-4.5-3.8-9-4.8-13.4V317C481.4,312.5,483,309,485.1,306.5L485.1,306.5z M485.1,361.2V396c-2-3.3-3.5-6.8-4.8-10.5v-33.3
		C481.7,355.1,483.3,358.1,485.1,361.2L485.1,361.2z M485.1,406.2V425l-4.8,9.4v-35.7C481.7,401.3,483.3,403.8,485.1,406.2
		L485.1,406.2z M485.1,435.5v22.8c-2,0-3.6-0.5-4.8-1.6V456c2.4-5.5,3-11,3.4-16.5C484.1,438.1,484.6,436.8,485.1,435.5L485.1,435.5
		z M485.1,463.9v6.9l-0.2,1.7c-1.5,1.1-3.1,2-4.6,2.9v-10.8C481.9,464.5,483.5,464.2,485.1,463.9L485.1,463.9z M485.1,477.2v2.6
		C484.1,479.3,484,478,485.1,477.2L485.1,477.2z M485.1,485.9v34.6c-1.5-0.2-3.1-0.5-4.8-0.8v-32.4
		C482,486.9,483.6,486.4,485.1,485.9L485.1,485.9z M485.1,536.9v17.3c-2-2.5-2.2-5.9-1-9.9c0.3-1,0.6-2.1,0.9-3.1
		C484.8,539,484.9,537.6,485.1,536.9L485.1,536.9z M485.1,561.3v30.2c-1.6,5.8-2.2,10.9-4.6,11.5l-0.2-2.8V572
		c0.5-4.4,1.4-8.8,2.8-13.1c0.4,0.4,0.8,0.8,1.2,1.2C484.6,560.5,484.9,560.9,485.1,561.3L485.1,561.3z M480.3,550.4v-12.7l0.6-0.1
		c-0.2,4.1-0.3,8.2-0.5,12.4C480.4,550.1,480.4,550.2,480.3,550.4L480.3,550.4z M480.3,534v-9.7c0.7,0,1.4-0.1,2.1-0.1
		c-0.9,3-1,5.9-0.8,8.9C481.3,533.5,480.9,533.8,480.3,534z M480.3,317v20.8c-1.3-5.5-1.7-11-0.8-16.4
		C479.7,319.9,480,318.4,480.3,317L480.3,317z M480.3,352.3c-10-20.8-6.5-32.6-1.4-47.2c-3.4,1.5-6.6,3.7-9.3,6.5v57.3
		c0.3,0.2,0.6,0.4,0.8,0.6c3.1,2.2,6.2,4.4,9.3,6.6c0.1,2.9,0.1,5.8,0.2,8.7l0.3,0.8V352.3L480.3,352.3z M480.3,398.7v35.7l-1.1,2.1
		c-3.7-4-7.2-8.2-9.6-13.2v-35.9c1.2-3.5,2.9-6.3,5.3-8.3C475.4,386.1,477.2,392.6,480.3,398.7L480.3,398.7z M480.3,456v0.8
		c-0.1-0.1-0.2-0.2-0.3-0.2C480.1,456.4,480.2,456.2,480.3,456L480.3,456z M480.3,464.6v10.8c-3.5,2-7.1,3.5-10.7,4.6v-16.1
		C473,464.7,476.5,465,480.3,464.6L480.3,464.6z M480.3,487.3v32.4c-0.8-0.2-1.6-0.4-2.4-0.6c-2.7-0.2-5.5-0.7-8.2-1.5v-27.5
		C473.4,489.2,477,488.3,480.3,487.3L480.3,487.3z M480.3,524.3v9.7c-0.2,0.1-0.4,0.1-0.7,0.1c-3.8,0.7-7,1.6-10,2.6v-13.5
		C473.2,524,476.7,524.4,480.3,524.3L480.3,524.3z M480.3,537.7v12.7c-0.8,2.2-2,2.8-3.3,2.7c-2.7,1.1-5.2,2.2-7.3,3.2v-15.9
		C473.1,539,476.7,538.1,480.3,537.7L480.3,537.7z M480.3,572v28.2C479.7,590.7,479.2,581.2,480.3,572L480.3,572z M469.6,587.3
		v-27.1c2.3-1.7,5-2.4,7.9-2.5c0.5,6.7,0.1,13.2-2.7,19.3c-0.2,3.8,0.1,8.3,0.7,13.3C473.2,590,471.2,589,469.6,587.3L469.6,587.3z
		 M469.6,456.6c1.7,0.7,3.5,1.2,5.3,1.7c2-3.3,0.6-8.3,2.1-12c2.4-4.5,2-8.1-2.3-10.3c-1.8-0.9-3.5-1.8-5.1-2.9V456.6L469.6,456.6z
		 M469.6,379v-2.8c0.4,0.1,0.7,0.2,1.1,0.3C470.4,377.3,470,378.2,469.6,379L469.6,379z M469.6,305v-4.4c0.5,0,1,0,1.5,0
		C470.8,302.2,470.3,303.6,469.6,305z M469.6,300.6v4.4c-1.7,3.9-4.3,6.8-7.6,8.9c-3.2,3.5-5.8,7.1-7.4,10.9v-20.5
		C459.9,301.9,465,300.6,469.6,300.6L469.6,300.6z M469.6,311.5c-5.9,6.1-9.9,15.1-10.2,26.8c1.3,1,2.4,2,2.3,3
		c-3.9,6.9-4,13.7-0.8,20.6c2.7,4.8,5.8,5.1,8.7,7V311.5L469.6,311.5z M469.6,376.2v2.8c-4.7,11.3-7.6,22.7-8.4,34
		c-0.9,10.9,3,16.4,8.4,20.1v23.5c-5.7-2.2-10.7-5.2-14.9-9.1v-86.8c0.1,0.3,0.3,0.5,0.4,0.8C457.7,369.2,462.4,374.2,469.6,376.2
		L469.6,376.2z M469.6,387.4c-2.5,7.3-2.8,17.4-2.5,28.3c0.5,2.8,1.4,5.3,2.5,7.6V387.4L469.6,387.4z M469.6,463.9
		c-5.5-1.3-10.4-3.9-14.9-7.7v25.7c5,0.2,10-0.4,14.9-1.9V463.9L469.6,463.9z M469.6,490.1v27.5c-2.6-0.8-5.2-2-7.8-3.5
		c-2.4,0.4-4.8,0.7-7.1,0.9v-21.6C460,492.3,465,491.2,469.6,490.1L469.6,490.1z M469.6,523.2v13.5c-6.1,2.1-10.7,4.8-14.9,8.9v-25
		l1.8-2.6C460.9,520.4,465.2,522.1,469.6,523.2L469.6,523.2z M469.6,540.4c-3.7,1.5-7.3,3.6-10.7,6.3c-1.6,1.2-3,2.4-4.2,3.7v17.1
		l2.3,3.4c3.2-0.9,5.9-2.4,5.5-8.8c0.2-1.8,3-3.8,7.1-5.9V540.4L469.6,540.4z M469.6,560.3v27.1c-1.6-1.6-2.8-3.7-3.9-6.2
		c-1.2-2.2-2.9-4.5-4.3-6.7c1.8-2.4,3.4-5.7,4.7-9.8C467.1,562.7,468.3,561.3,469.6,560.3L469.6,560.3z M454.7,490.1
		c2.7-0.6,4.3-1.5,3.9-2.7c-0.7-0.8-1.9-1.3-3.9-1.2V490.1L454.7,490.1z M454.7,342.5v-1.2c0.2,0.1,0.5,0.1,0.8,0.2
		C455.2,341.8,455,342.2,454.7,342.5z M454.7,304.3v20.5c-1,2.4-1.6,4.8-1.7,7.4c-1,4.2-1.4,8.1,1.7,9.1v1.2
		c-3.6,5.1-3.2,11.3,0,18.2v86.8c-2.1-1.9-4-4.1-5.8-6.5V307.3C450.9,306.1,452.8,305.1,454.7,304.3L454.7,304.3z M454.7,456.2v25.7
		c-1.9-0.1-3.8-0.3-5.8-0.6v-30.8C450.8,452.6,452.7,454.5,454.7,456.2L454.7,456.2z M454.7,486.2v3.9c-1.6,0.4-3.6,0.7-5.8,0.9
		v-3.8C451.4,486.6,453.3,486.3,454.7,486.2L454.7,486.2z M454.7,493.4V515c-2,0.2-4,0.3-5.8,0.2v-20.7
		C450.9,494.2,452.8,493.8,454.7,493.4L454.7,493.4z M454.7,520.7v25c-2,1.9-3.9,4.2-5.8,6.8v-24.1c0.4-0.4,0.8-0.7,1.2-1.1
		L454.7,520.7L454.7,520.7z M454.7,550.4c-3,3.4-4.3,7.2-3.9,11.5l3.9,5.6V550.4z M448.9,307.3V441c-4.4-6-7.6-13.4-9.6-22.4
		c-1.9-10.6-2.3-20.7,2.5-29.1c1-0.8,1-1.8,0-3.2c-1.5-1.4-3.2-2.8-4.8-4.2v-66.3C440.8,312.6,444.8,309.7,448.9,307.3L448.9,307.3z
		 M448.9,450.4c-4-4.6-7.6-10.2-11-16.6c-0.3-0.6-0.6-1.1-0.9-1.7v45.4c1.9,0.9,3.9,1.6,6,2.3c2,0.6,3.9,1.1,5.9,1.4V450.4
		L448.9,450.4z M448.9,487.3v3.8c-1.4,0.2-2.9,0.3-4.4,0.5c-2.8,0.1-5.3,0.7-7.5,2.2v-4.8c2.3,0,4.6,0.1,6.9,0.1
		C445.8,488.3,447.5,487.7,448.9,487.3L448.9,487.3z M448.9,494.5v20.7c-5.3-0.2-9.5-1.5-11.5-5c-0.1-0.2-0.3-0.4-0.4-0.6v-9.6
		c1-1.4,2.4-2.7,4.3-4C443.9,495.5,446.5,495,448.9,494.5L448.9,494.5z M448.9,528.3v24.1c-0.6,0.8-1.1,1.5-1.7,2.4
		c-2.7-2.1-5.4-4.3-8.1-6.4c-0.1-5.8,2.2-10.9,6.4-15.6C446.4,531.1,447.5,529.7,448.9,528.3L448.9,528.3z M437,484.2v-0.9
		c0.5,0.2,1,0.5,1.5,0.7L437,484.2z M437,315.9v66.3c-9.6-8.1-19.8-16.3-21.1-30.8C416.4,339.5,425.5,326,437,315.9L437,315.9z
		 M437,432.1c-5.9-12.2-1.9-31.6-3.4-43.6c-9.9-9.5-22.4-14.7-24.9-43.5c-6.6,0.7-11.3,5.1-11.8,17.8c1.1,8.2,0.3,16.2-1.9,24v35.7
		c2.1,3.3,5.2,5.5,9.5,6.6c7.5,4.2,10.8,10.9,11.2,19.4c3.3,12.4,8.8,23.2,21.3,29V432.1L437,432.1z M437,483.3v0.9
		c-8.1,1.1-15.8,2.1-20.2,3.2c-2.7,0.9-4.4-0.9-6.1-2.7c-4.9-5.6-6.9-12.4-15.8-16.9v-10.6c4.6-1,8.6-1,12-0.3
		c4.5,1.2,7.8,4.7,10.2,9.6C421.8,473.2,428.1,479,437,483.3L437,483.3z M437,488.9v4.8c-2.1,1.5-3.9,3.8-5,7.3
		c-2.2,6.7-0.4,11.5,3.4,15.4c-0.1,7.9-6.7,15-21.4,21c-6.8,2.7-13.1,3.3-18.9,2.4v-14.7c9.4-4.9,19.4-12.9,21.3-26.6
		c-1.3-5.8,0.3-8.5,4.8-8C425.2,488.9,431,488.8,437,488.9L437,488.9z M437,499.9c-2,2.9-2,6,0,9.6V499.9L437,499.9z M395,521
		c11.2-6.7,17.6-17.6,18.4-28.9c-5.9,1.1-12.1,1.8-18.4,2.4V521L395,521z M395,489.2v-15.9c0.7,0.6,1.4,1.3,2,2
		c3.8,4.6,7.8,9.1,12.2,13.1L395,489.2z M355.2,487.6c1.5,0.1,2.5,0,2.8-0.5c0.5-1.2-0.9-3.1-2.8-5V487.6L355.2,487.6z M395,386.8
		v35.7c-3.9-5.9-4.6-15.2-3.2-26.7C393.1,392.9,394.1,389.9,395,386.8L395,386.8z M395,457.1v10.6c-0.9-0.5-1.9-0.9-3-1.3
		c-3.7-1.4-7.4-2.8-11.2-4.2C386.1,459.7,390.8,458,395,457.1L395,457.1z M395,473.3v15.9l-15.6,0.9c-1.6,1.1-3.6,0.9-5.7,0.6
		c-4.1-1.9-7.4-4.5-9.3-8.3c-1.7-3-6.1-4-9.2-4.9v-2.6c2.9-0.9,7.1-1.9,9.9-5.6c3-4.2,8.9-3.7,14.9-3
		C386.9,467.9,391.6,470.3,395,473.3L395,473.3z M395,494.5V521c-3.9,2.3-8.4,4.1-13.5,5.3c-9.9,0.1-18.8-3.6-26.3-12.7v-4
		c11-1.4,20.5-6.1,28.5-14.1C387.5,495.2,391.2,494.8,395,494.5L395,494.5z M395,525.2c-9.2,4.7-17.9,6.4-18.2,7.3
		c3,0.6,4.8,1.9,6.4,3.2c3.8,2,7.7,3.4,11.8,4.1V525.2L395,525.2z M355.2,504.7V492c0.9,0.2,1.7,0.4,2.6,0.5
		c2.2-5.4,7.4-2.9,13.1,0.7c1.9,0.8,3.8,1,5.7,0.8C372.5,498,369.1,502,355.2,504.7z M346.4,479.1c-4.2-0.5-5.5,0.6-7.6,0.5
		c-5-1-12.3-0.3-12.8,1.3c0.1,1.1,1.9,1.8,7.6,1.6c1.8-0.8,3.4-0.3,5.1,0c6.7,3,13.1,4.8,16.6,5.1v-5.5c-1.6-1.6-3.7-3.2-5.6-4.3
		C348.8,478.5,347.8,479,346.4,479.1L346.4,479.1z M355.2,474.9v2.6c-1.3-0.4-2.4-0.7-2.9-1.1C352.7,475.7,353.8,475.3,355.2,474.9
		L355.2,474.9z M355.2,492v12.7c-1.5,0.3-3.1,0.6-4.8,0.8c-6.5,1.8-8.7-8.5-11.6-17.2C344.3,489.1,349.7,490.9,355.2,492L355.2,492z
		 M355.2,509.6v4c-1-1.1-1.9-2.4-2.8-3.7C353.3,509.8,354.3,509.7,355.2,509.6z"></path>
  </g>
</svg>